<?xml version="1.0" standalone="no"?>
<!DOCTYPE svg PUBLIC "-//W3C//DTD SVG 20010904//EN"
 "http://www.w3.org/TR/2001/REC-SVG-20010904/DTD/svg10.dtd">
<svg version="1.0" xmlns="http://www.w3.org/2000/svg"
 width="1322.000000pt" height="712.000000pt" viewBox="0 0 1322.000000 712.000000"
 preserveAspectRatio="xMidYMid meet">

<g transform="translate(0.000000,712.000000) scale(0.100000,-0.100000)"
fill="#000000" stroke="none">
<path d="M6860 6225 c-307 -40 -655 -154 -1024 -335 -282 -139 -444 -248 -585
-395 -104 -108 -165 -203 -209 -324 -30 -84 -35 -111 -39 -216 -6 -141 7 -207
67 -330 75 -154 178 -275 557 -650 l353 -350 -97 -49 c-129 -64 -338 -185
-438 -255 -261 -181 -411 -334 -497 -507 -43 -87 -43 -89 -43 -193 0 -98 2
-111 31 -171 75 -156 221 -260 454 -322 112 -30 395 -37 527 -13 191 34 335
94 455 191 144 116 205 234 223 429 10 111 -23 261 -86 387 -58 115 -223 333
-328 432 -26 25 -41 56 -28 56 2 0 87 32 188 71 324 125 993 342 1324 430 135
35 155 44 155 64 0 40 -124 11 -720 -165 -343 -101 -652 -203 -888 -292 l-132
-49 -263 253 c-482 464 -588 596 -657 813 -44 137 -28 310 40 444 226 448
1147 921 1862 958 285 15 446 -61 476 -225 26 -146 -67 -303 -215 -363 -61
-25 -81 -61 -47 -86 63 -47 261 90 325 224 58 121 49 281 -22 377 -42 57 -122
113 -195 136 -131 40 -334 50 -524 25z m-624 -2895 c162 -205 244 -388 244
-545 0 -139 -39 -230 -137 -327 -138 -134 -336 -215 -588 -239 -342 -34 -636
82 -726 286 -106 240 102 520 621 832 107 65 265 154 354 201 l38 21 72 -82
c39 -45 94 -112 122 -147z"/>
<path d="M3075 1702 c-162 -54 -193 -268 -50 -349 40 -23 63 -31 204 -74 124
-38 167 -99 126 -179 -49 -94 -244 -82 -311 18 -13 18 -24 37 -26 43 -2 6 -22
5 -56 -2 -59 -14 -60 -19 -17 -94 75 -131 314 -166 457 -68 104 71 103 245 -3
318 -22 16 -90 43 -152 62 -142 43 -189 68 -200 109 -11 38 11 96 45 118 35
23 106 30 157 16 47 -13 111 -67 111 -94 0 -19 7 -20 66 -5 39 10 44 14 38 33
-22 72 -81 128 -158 151 -64 19 -168 18 -231 -3z"/>
<path d="M3890 1343 c-74 -201 -137 -372 -138 -380 -3 -11 9 -13 54 -11 l58 3
31 88 30 87 170 -2 169 -3 31 -87 30 -88 58 0 c32 0 56 3 54 8 -4 6 -231 618
-269 725 -10 26 -13 27 -76 27 l-67 0 -135 -367z m270 73 c33 -92 60 -174 60
-182 0 -11 -24 -14 -130 -14 -71 0 -130 1 -130 3 0 1 96 274 125 356 3 8 8 12
10 9 3 -2 32 -80 65 -172z"/>
<path d="M4786 1668 c-3 -24 -15 -167 -26 -318 -11 -151 -23 -303 -26 -337
l-6 -63 56 0 c47 0 56 3 56 17 0 33 41 518 46 553 5 31 19 -1 119 -265 l113
-300 35 -3 34 -3 114 300 c62 165 115 298 116 297 2 -2 12 -113 23 -247 11
-134 22 -268 26 -296 l5 -53 53 0 52 0 -28 348 c-15 191 -27 362 -27 380 l-1
33 -77 -3 -76 -3 -106 -277 c-58 -152 -108 -275 -111 -273 -4 2 -53 128 -111
279 l-104 276 -72 0 -72 0 -5 -42z"/>
<path d="M6007 1337 c-75 -206 -137 -377 -137 -381 0 -4 25 -6 57 -4 l56 3 31
88 31 87 169 -2 169 -3 31 -87 31 -88 56 0 56 0 -140 380 -140 380 -66 0 -66
0 -138 -373z m275 74 c32 -90 58 -170 58 -178 0 -10 -28 -13 -131 -13 -101 0
-130 3 -126 13 2 6 33 93 68 191 35 98 65 173 68 165 2 -8 30 -88 63 -178z"/>
<path d="M6880 1330 l0 -380 55 0 55 0 0 298 0 297 196 -297 196 -298 59 0 59
0 0 380 0 380 -55 0 -55 0 0 -297 0 -298 -197 298 -197 297 -58 0 -58 0 0
-380z"/>
<path d="M7820 1660 l0 -50 95 0 95 0 0 -330 0 -330 55 0 55 0 0 330 0 330 95
0 95 0 0 50 0 50 -245 0 -245 0 0 -50z"/>
<path d="M8630 1330 l0 -380 55 0 55 0 0 165 0 165 185 0 185 0 0 -165 0 -165
55 0 55 0 0 380 0 380 -55 0 -55 0 0 -165 0 -165 -185 0 -185 0 0 165 0 165
-55 0 -55 0 0 -380z"/>
<path d="M9796 1643 c-95 -253 -246 -669 -246 -680 0 -9 16 -13 54 -13 l53 0
32 90 33 90 167 0 168 0 32 -90 33 -90 54 0 c30 0 54 3 53 8 0 4 -62 174 -137
377 l-137 370 -67 3 -66 3 -26 -68z m162 -231 c34 -98 62 -182 62 -185 0 -10
-260 -9 -260 1 0 13 125 362 130 362 3 0 33 -80 68 -178z"/>
</g>
</svg>
